<?xml version="1.0" standalone="no"?>
<!DOCTYPE svg PUBLIC "-//W3C//DTD SVG 20010904//EN"
 "http://www.w3.org/TR/2001/REC-SVG-20010904/DTD/svg10.dtd">
<svg version="1.0" xmlns="http://www.w3.org/2000/svg"
 width="1440.000000pt" height="810.000000pt" viewBox="0 0 1440.000000 810.000000"
 preserveAspectRatio="xMidYMid meet">

<g transform="translate(0.000000,810.000000) scale(0.100000,-0.100000)"
fill="#000000" stroke="none">
<path d="M2204 6615 c-187 -41 -304 -188 -304 -384 0 -172 76 -292 229 -364
57 -27 79 -32 167 -35 123 -5 186 11 272 68 112 75 165 180 165 330 0 119 -24
187 -93 263 -106 116 -263 160 -436 122z"/>
<path d="M6500 4200 l0 -1470 260 0 260 0 0 548 c0 301 5 590 10 644 19 200
69 314 174 399 80 66 149 90 273 96 89 5 109 3 168 -18 87 -31 144 -84 176
-164 l24 -60 5 -720 5 -720 260 0 260 0 3 695 c3 727 -2 846 -39 980 -62 224
-212 376 -423 430 -204 52 -458 25 -611 -64 -68 -40 -161 -121 -203 -177 -26
-35 -43 -49 -57 -47 -20 3 -20 11 -23 561 l-2 557 -260 0 -260 0 0 -1470z"/>
<path d="M4781 5535 c-151 -24 -224 -47 -336 -100 -175 -84 -287 -190 -360
-340 -57 -115 -70 -181 -70 -345 1 -165 14 -233 70 -345 89 -181 263 -319 509
-400 43 -15 193 -53 333 -85 326 -76 391 -100 471 -174 130 -120 112 -378 -33
-488 -82 -63 -164 -83 -330 -82 -158 1 -268 22 -378 73 -125 56 -258 162 -343
273 -27 35 -53 58 -64 58 -13 0 -69 -61 -166 -177 -80 -98 -148 -183 -151
-190 -3 -7 9 -31 25 -55 156 -227 453 -392 799 -443 148 -22 439 -22 558 0
213 38 378 119 505 245 154 153 221 334 222 595 2 413 -210 672 -645 790 -51
13 -191 45 -312 70 -315 65 -400 97 -472 179 -47 53 -63 101 -63 188 0 201
194 313 511 295 113 -7 233 -32 315 -67 63 -28 171 -100 213 -144 59 -61 64
-58 216 151 l136 187 -48 49 c-57 58 -185 145 -268 182 -81 36 -202 72 -305
91 -118 22 -430 27 -539 9z"/>
<path d="M1816 5473 c-9 -31 -576 -2700 -576 -2712 0 -8 97 -11 339 -11 l339
0 5 23 c6 20 562 2629 574 2690 l6 27 -341 0 c-316 0 -341 -1 -346 -17z"/>
<path d="M9717 4859 c-442 -47 -746 -319 -850 -763 -18 -79 -21 -122 -21 -316
0 -194 3 -237 21 -316 75 -318 236 -532 498 -660 124 -60 222 -87 389 -105
180 -19 409 13 566 80 300 128 493 388 555 747 23 133 23 375 0 508 -60 347
-243 604 -520 732 -181 83 -411 117 -638 93z m288 -454 c164 -43 261 -148 317
-342 21 -70 23 -99 23 -278 -1 -222 -11 -287 -65 -400 -76 -159 -221 -245
-415 -245 -240 0 -396 126 -461 375 -27 102 -27 429 0 530 54 203 153 315 317
359 72 19 211 20 284 1z"/>
<path d="M12448 4860 c-195 -23 -370 -123 -469 -267 -18 -26 -38 -43 -49 -43
-19 0 -20 8 -20 140 l0 140 -262 -2 -263 -3 0 -1470 0 -1470 260 0 260 0 3
538 c2 517 3 537 21 537 10 0 54 -35 97 -78 91 -90 166 -131 293 -163 73 -19
105 -21 240 -17 141 5 165 8 251 36 295 97 483 328 561 689 27 126 37 432 20
583 -34 290 -146 539 -304 674 -113 97 -265 159 -431 176 -101 11 -112 11
-208 0z m72 -456 c161 -38 270 -162 317 -361 25 -110 25 -404 0 -518 -46 -207
-154 -329 -328 -370 -272 -64 -503 78 -574 353 -38 148 -38 399 0 547 35 136
126 265 223 314 99 51 239 64 362 35z"/>
<path d="M2920 4165 l0 -115 290 0 290 0 0 115 0 115 -290 0 -290 0 0 -115z"/>
</g>
</svg>
